<svg height="32" id="svg4063" version="1.1" viewBox="0 0 32 32" width="32" xmlns="http://www.w3.org/2000/svg">
  <g id="layer1" transform="translate(0,-1020.3621)">
    <g id="g7966" transform="translate(-766.49658,-562.0323)">
      <g id="g8425">
        <path d="m 771.50948,1601.9411 0,-13.1065 c 0,-0.8238 0.66323,-1.4871 1.48707,-1.4871 l 20.00006,0 c 0.82384,0 1.48707,0.6633 1.48707,1.4871 l 0,13.1065 c 0,0.8238 -0.66323,1.4872 -1.48707,1.4872 l -14.00006,0 -1.49997,0.013 -6,6 0,-5 z" id="path5462" style="fill:#53c4f7;fill-opacity:1;fill-rule:evenodd;stroke:none;stroke-width:1.02579069px;stroke-linecap:round;stroke-linejoin:round;stroke-opacity:1">
        </path>
        <path d="m 780.54199,1590.4411 0,2.012 -2.01218,0 0,1.9848 2.01218,0 0,2.0062 -2.01218,0 0,1.9847 2.01218,0 0,2.0122 1.98466,0 0,-2.0122 1.97308,0 0,2.0122 1.98467,0 0,-2.0122 2.01218,0 0,-1.9847 -2.01218,0 0,-2.0062 2.01218,0 0,-1.9848 -2.01218,0 0,-2.012 -1.98467,0 0,2.012 -1.97308,0 0,-2.012 z m 1.98466,3.9969 1.97308,0 0,2.0062 -1.97308,0 z" id="path5464" style="fill:#f9f9f9;fill-opacity:1;stroke:none;stroke-width:1;stroke-linecap:round;stroke-linejoin:round">
        </path>
      </g>
    </g>
  </g>
</svg>