<?xml version="1.0" ?><svg height="32" id="svg4063" version="1.1" viewBox="0 0 32 32.000001" width="32" xmlns="http://www.w3.org/2000/svg" xmlns:cc="http://creativecommons.org/ns#" xmlns:dc="http://purl.org/dc/elements/1.1/" xmlns:inkscape="http://www.inkscape.org/namespaces/inkscape" xmlns:rdf="http://www.w3.org/1999/02/22-rdf-syntax-ns#" xmlns:sodipodi="http://sodipodi.sourceforge.net/DTD/sodipodi-0.dtd" xmlns:svg="http://www.w3.org/2000/svg"><defs id="defs4065"/><g id="layer1" transform="translate(0,-1020.3621)"><g id="g7126"><path d="m 3.5000196,1022.3621 23.9999654,0 c 0.831009,0 1.500017,0.669 1.500017,1.5 l 0,24 c 0,0.831 -0.669008,1.5 -1.500017,1.5 l -23.9999654,0 c -0.8310097,0 -1.5000175,-0.669 -1.5000175,-1.5 l 0,-24 c 0,-0.831 0.6690078,-1.5 1.5000175,-1.5 z" id="rect4960" style="opacity:1;fill:#e6e7e8;fill-opacity:1;stroke:none;stroke-width:1;stroke-linecap:round;stroke-linejoin:round;stroke-miterlimit:4.0999999;stroke-dasharray:none"/><path d="m 3.50054,1022.3616 c -0.83101,0 -1.5,0.669 -1.5,1.5 l 0,2.5 27,0 0,-2.5 c 0,-0.831 -0.66899,-1.5 -1.5,-1.5 l -24,0 z m -1.5,16 0,9.5 c 0,0.831 0.66899,1.5 1.5,1.5 l 24,0 c 0.83101,0 1.5,-0.669 1.5,-1.5 l 0,-9.5 -27,0 z" id="path4962" style="opacity:1;fill:#c7c7c7;fill-opacity:1;stroke:none;stroke-width:1;stroke-linecap:round;stroke-linejoin:round;stroke-miterlimit:4.0999999;stroke-dasharray:none"/><path d="m 2.00054,1034.3616 17,0 z m 0,4 0,9.5 c 0,0.831 0.66899,1.5 1.5,1.5 l 14,0 c 0.83101,0 1.32881,-0.6868 1.5,-1.5 l 0,-9.5 z" id="path5745" style="opacity:1;fill:#f9f9f9;fill-opacity:1;stroke:none;stroke-width:1;stroke-linecap:round;stroke-linejoin:round;stroke-miterlimit:4.0999999;stroke-dasharray:none"/><path d="m 29.00001,1026.3621 -27,0 0,12 27,0 z" id="path4964" style="fill:#4f8df5;fill-opacity:1;fill-rule:evenodd;stroke:none;stroke-width:1px;stroke-linecap:butt;stroke-linejoin:miter;stroke-opacity:1"/><path d="m 15.49663,1038.3616 0,11 12.00391,0 c 0.83101,0 1.5,-0.669 1.5,-1.5 l 0,-9.5 z" id="path5030" style="opacity:1;fill:#376ad7;fill-opacity:1;stroke:none;stroke-width:1;stroke-linecap:round;stroke-linejoin:round;stroke-miterlimit:4.0999999;stroke-dasharray:none"/><path d="m 4.5000019,1024.3621 a 0.5,0.5 0 0 1 -0.5,0.5 0.5,0.5 0 0 1 -0.5,-0.5 0.5,0.5 0 0 1 0.5,-0.5 0.5,0.5 0 0 1 0.5,0.5 z" id="circle5036" style="opacity:1;fill:#ffffff;fill-opacity:1;stroke:none;stroke-width:1;stroke-linecap:round;stroke-linejoin:round;stroke-miterlimit:4.0999999;stroke-dasharray:none"/><path d="m 6.5000019,1024.3621 a 0.5,0.5 0 0 1 -0.5,0.5 0.5,0.5 0 0 1 -0.5,-0.5 0.5,0.5 0 0 1 0.5,-0.5 0.5,0.5 0 0 1 0.5,0.5 z" id="circle5038" style="opacity:1;fill:#ffffff;fill-opacity:1;stroke:none;stroke-width:1;stroke-linecap:round;stroke-linejoin:round;stroke-miterlimit:4.0999999;stroke-dasharray:none"/><path d="m 8.5000019,1024.3621 a 0.5,0.5 0 0 1 -0.5,0.5 0.5,0.5 0 0 1 -0.5,-0.5 0.5,0.5 0 0 1 0.5,-0.5 0.5,0.5 0 0 1 0.5,0.5 z" id="circle5040" style="opacity:1;fill:#ffffff;fill-opacity:1;stroke:none;stroke-width:1;stroke-linecap:round;stroke-linejoin:round;stroke-miterlimit:4.0999999;stroke-dasharray:none"/><path d="m 4,1041.8613 a 0.50005,0.50005 0 1 0 0,1 l 2.375,0 3.625,0 a 0.50005,0.50005 0 1 0 0,-1 l -3.625,0 -2.375,0 z m 8,0 a 0.50005,0.50005 0 1 0 0,1 l 1,0 a 0.50005,0.50005 0 1 0 0,-1 l -1,0 z" id="path5046" style="color:#000000;font-style:normal;font-variant:normal;font-weight:normal;font-stretch:normal;font-size:medium;line-height:normal;font-family:sans-serif;text-indent:0;text-align:start;text-decoration:none;text-decoration-line:none;text-decoration-style:solid;text-decoration-color:#000000;letter-spacing:normal;word-spacing:normal;text-transform:none;direction:ltr;block-progression:tb;writing-mode:lr-tb;baseline-shift:baseline;text-anchor:start;white-space:normal;clip-rule:nonzero;display:inline;overflow:visible;visibility:visible;opacity:1;isolation:auto;mix-blend-mode:normal;color-interpolation:sRGB;color-interpolation-filters:linearRGB;solid-color:#000000;solid-opacity:1;fill:#c7c7c7;fill-opacity:1;fill-rule:evenodd;stroke:none;stroke-width:1px;stroke-linecap:round;stroke-linejoin:round;stroke-miterlimit:4;stroke-dasharray:none;stroke-dashoffset:0;stroke-opacity:1;color-rendering:auto;image-rendering:auto;shape-rendering:auto;text-rendering:auto;enable-background:accumulate"/><path d="m 4,1044.8613 a 0.50005,0.50005 0 1 0 0,1 l 2.375,0 3.625,0 a 0.50005,0.50005 0 1 0 0,-1 l -3.625,0 -2.375,0 z m 8,0 a 0.50005,0.50005 0 1 0 0,1 l 1,0 a 0.50005,0.50005 0 1 0 0,-1 l -1,0 z" id="path5048" style="color:#000000;font-style:normal;font-variant:normal;font-weight:normal;font-stretch:normal;font-size:medium;line-height:normal;font-family:sans-serif;text-indent:0;text-align:start;text-decoration:none;text-decoration-line:none;text-decoration-style:solid;text-decoration-color:#000000;letter-spacing:normal;word-spacing:normal;text-transform:none;direction:ltr;block-progression:tb;writing-mode:lr-tb;baseline-shift:baseline;text-anchor:start;white-space:normal;clip-rule:nonzero;display:inline;overflow:visible;visibility:visible;opacity:1;isolation:auto;mix-blend-mode:normal;color-interpolation:sRGB;color-interpolation-filters:linearRGB;solid-color:#000000;solid-opacity:1;fill:#c7c7c7;fill-opacity:1;fill-rule:evenodd;stroke:none;stroke-width:1px;stroke-linecap:round;stroke-linejoin:round;stroke-miterlimit:4;stroke-dasharray:none;stroke-dashoffset:0;stroke-opacity:1;color-rendering:auto;image-rendering:auto;shape-rendering:auto;text-rendering:auto;enable-background:accumulate"/></g></g></svg>