<svg height="32" id="svg4063" version="1.1" viewBox="0 0 32 32" width="32" xmlns="http://www.w3.org/2000/svg">
  <g id="layer1" transform="translate(0,-1020.3621)">
    <g id="g7436">
      <path d="m 25,1028.3621 0,18.5 c 0,0.831 -0.669,1.5 -1.50001,1.5 l -15.99997,0 c -0.83101,0 -1.50002,-0.669 -1.50002,-1.5 l 0,-22 c 0,-0.831 0.66901,-1.5 1.50002,-1.5 l 12.49998,0" id="path4996" style="opacity:1;fill:#f5ba15;fill-opacity:1;stroke:none;stroke-width:1;stroke-linecap:round;stroke-linejoin:round;stroke-miterlimit:4.0999999;stroke-dasharray:none">
      </path>
      <path d="m 20.00003,1023.3621 0,3.5 c 0,0.831 0.66899,1.5 1.5,1.5 l 3.5,0 z" id="path5098" style="opacity:1;fill:#fadc87;fill-opacity:1;stroke:none;stroke-width:1;stroke-linecap:round;stroke-linejoin:round;stroke-miterlimit:4.0999999;stroke-dasharray:none">
      </path>
      <path d="m 10.00005,1032.3622 8.000017,0 0,8 -8.000017,0 z" id="rect5104" style="opacity:1;fill:#ffffff;fill-opacity:1;stroke:none;stroke-width:0.99999994;stroke-linecap:round;stroke-linejoin:round;stroke-miterlimit:4.0999999;stroke-dasharray:none">
      </path>
      <path d="m 19.00005,1035.3612 0,6.0019 -6,0 0,1.9981 8,0 0,-8 -2,0 z m -2,1 -3.00195,3.0019 3.00195,0 0,-3.0019 z" id="path5106" style="opacity:1;fill:#ffffff;fill-opacity:1;stroke:none;stroke-width:0.99999994;stroke-linecap:round;stroke-linejoin:round;stroke-miterlimit:4.0999999;stroke-dasharray:none">
      </path>
    </g>
  </g>
</svg>