<?xml version="1.0" ?><svg height="32" id="svg4063" version="1.1" viewBox="0 0 32 32.000001" width="32" xmlns="http://www.w3.org/2000/svg" xmlns:cc="http://creativecommons.org/ns#" xmlns:dc="http://purl.org/dc/elements/1.1/" xmlns:inkscape="http://www.inkscape.org/namespaces/inkscape" xmlns:rdf="http://www.w3.org/1999/02/22-rdf-syntax-ns#" xmlns:sodipodi="http://sodipodi.sourceforge.net/DTD/sodipodi-0.dtd" xmlns:svg="http://www.w3.org/2000/svg"><defs id="defs4065"/><g id="layer1" transform="translate(0,-1020.3621)"><g id="g7748"><path d="m 27.00041,1034.4141 c 0,7.0042 -4.7139,13.1352 -11.49303,14.948 l -0.007,-0.01 0,-2.9796 -3e-5,-0.01 c -4.65131,0 -8.84463,-2.8019 -10.62462,-7.0991 -1.77999,-4.2973 -0.79609,-9.2436 2.49289,-12.5326 3.28897,-3.289 8.23533,-4.2729 12.53259,-2.4929 4.29725,1.78 7.09913,5.9733 7.09914,10.6246" id="path5154" style="fill:#34a853;fill-opacity:1;fill-rule:evenodd;stroke:none;stroke-width:0.99999994px;stroke-linecap:round;stroke-linejoin:round;stroke-opacity:1"/><path d="m 22.00049,1036.3712 c -3e-5,1.6529 -1.33997,2.9928 -2.99286,2.9928 l -0.008,-2.0006 c 0.55228,0 1,-0.4477 1,-1 l -5e-5,-0.9997 -2.99998,0 -10e-6,0 -10e-6,0 0,-5 2e-5,0 4.99996,0 2e-5,0 0,5 z" id="path5156" style="opacity:1;fill:#ffffff;fill-opacity:1;stroke:none;stroke-width:1;stroke-linecap:round;stroke-linejoin:round;stroke-miterlimit:4.0999999;stroke-dasharray:none"/><path d="m 14.00049,1036.3712 c -3e-5,1.6529 -1.33997,2.9928 -2.99286,2.9928 l -0.008,-2.0006 c 0.55228,0 1,-0.4477 1,-1 l -5e-5,-0.9997 -2.99998,0 -10e-6,0 -10e-6,0 0,-5 2e-5,0 4.99996,0 2e-5,0 0,5 z" id="path5158" style="opacity:1;fill:#ffffff;fill-opacity:1;stroke:none;stroke-width:1;stroke-linecap:round;stroke-linejoin:round;stroke-miterlimit:4.0999999;stroke-dasharray:none"/></g></g></svg>