<?xml version="1.0" ?><svg height="32" id="svg4063" version="1.1" viewBox="0 0 32 32.000001" width="32" xmlns="http://www.w3.org/2000/svg" xmlns:cc="http://creativecommons.org/ns#" xmlns:dc="http://purl.org/dc/elements/1.1/" xmlns:inkscape="http://www.inkscape.org/namespaces/inkscape" xmlns:rdf="http://www.w3.org/1999/02/22-rdf-syntax-ns#" xmlns:sodipodi="http://sodipodi.sourceforge.net/DTD/sodipodi-0.dtd" xmlns:svg="http://www.w3.org/2000/svg"><defs id="defs4065"/><g id="layer1" transform="translate(0,-1020.3621)"><g id="g7205"><path d="m 2.00051,1022.3621 0,25.5 c 0,0.831 0.66899,1.5 1.5,1.5 l 19.5,0 6,-6 0,-21 -0.004,0 -2.24804,3 -2.24805,-3 -2.24805,3 -2.24804,-3 -0.01,0 -2.24805,3 -2.24804,-3 -2.24805,3 -2.25,-3 -2.24805,3 -2.24804,-3 -2.24805,3 -2.24805,-3 -0.008,0 z" id="path5052" style="opacity:1;fill:#f9f9f9;fill-opacity:1;stroke:none;stroke-width:1;stroke-linecap:round;stroke-linejoin:round;stroke-miterlimit:4.0999999;stroke-dasharray:none"/><path d="m 4.001379,1034.3623 12.999983,0 0,13 -12.999983,0 z" id="rect5054" style="opacity:1;fill:#4758b8;fill-opacity:1;stroke:none;stroke-width:1;stroke-linecap:round;stroke-linejoin:round;stroke-miterlimit:4.0999999;stroke-dasharray:none"/><path d="m 4.001379,1028.3623 23,0 0,3 -23,0 z" id="rect5056" style="opacity:1;fill:#4788f4;fill-opacity:1;stroke:none;stroke-width:0.99999994;stroke-linecap:round;stroke-linejoin:round;stroke-miterlimit:4.0999999;stroke-dasharray:none"/><path d="m 29.0014,1043.3623 -4.2,0 c -0.99722,0 -1.8,0.8028 -1.8,1.8 l 0,4.2 z" id="path5058" style="opacity:1;fill:#cbcbcb;fill-opacity:1;stroke:none;stroke-width:1;stroke-linecap:round;stroke-linejoin:round;stroke-miterlimit:4.0999999;stroke-dasharray:none"/><path d="m 9.9785156,1036.8965 c -0.8515799,0.1121 -1.665459,0.4975 -2.3046875,1.1367 -1.2784776,1.2784 -1.5407353,3.2623 -0.6367187,4.8281 0.9040248,1.5658 2.753612,2.3313 4.4999996,1.8633 1.746386,-0.4679 2.964821,-2.0553 2.964844,-3.8633 l 0,-0.5 -4,0 0,1 2.830078,0 c -0.206841,1.122 -0.920724,2.0946 -2.054687,2.3985 -1.3138923,0.352 -2.6948651,-0.2205 -3.3750002,-1.3985 -0.6801235,-1.178 -0.4833068,-2.6593 0.4785156,-3.6211 0.9618431,-0.9618 2.4431066,-1.1567 3.6210936,-0.4765 l 0.5,-0.8672 c -0.782896,-0.452 -1.671857,-0.6121 -2.5234374,-0.5 z" id="path5064" style="color:#000000;font-style:normal;font-variant:normal;font-weight:normal;font-stretch:normal;font-size:medium;line-height:normal;font-family:sans-serif;text-indent:0;text-align:start;text-decoration:none;text-decoration-line:none;text-decoration-style:solid;text-decoration-color:#000000;letter-spacing:normal;word-spacing:normal;text-transform:none;direction:ltr;block-progression:tb;writing-mode:lr-tb;baseline-shift:baseline;text-anchor:start;white-space:normal;clip-rule:nonzero;display:inline;overflow:visible;visibility:visible;opacity:1;isolation:auto;mix-blend-mode:normal;color-interpolation:sRGB;color-interpolation-filters:linearRGB;solid-color:#000000;solid-opacity:1;fill:#f9f9f9;fill-opacity:1;fill-rule:nonzero;stroke:none;stroke-width:1;stroke-linecap:butt;stroke-linejoin:miter;stroke-miterlimit:4.0999999;stroke-dasharray:none;stroke-dashoffset:0;stroke-opacity:1;color-rendering:auto;image-rendering:auto;shape-rendering:auto;text-rendering:auto;enable-background:accumulate"/><path d="m 19.001953,1035.8613 a 0.50005,0.50005 0 1 0 0,1 l 0.0059,0 a 0.50005,0.50005 0 1 0 0,-1 l -0.0059,0 z m 2,0 a 0.50005,0.50005 0 1 0 0,1 l 5.005859,0 a 0.50005,0.50005 0 1 0 0,-1 l -5.005859,0 z" id="path5070" style="color:#000000;font-style:normal;font-variant:normal;font-weight:normal;font-stretch:normal;font-size:medium;line-height:normal;font-family:sans-serif;text-indent:0;text-align:start;text-decoration:none;text-decoration-line:none;text-decoration-style:solid;text-decoration-color:#000000;letter-spacing:normal;word-spacing:normal;text-transform:none;direction:ltr;block-progression:tb;writing-mode:lr-tb;baseline-shift:baseline;text-anchor:start;white-space:normal;clip-rule:nonzero;display:inline;overflow:visible;visibility:visible;opacity:1;isolation:auto;mix-blend-mode:normal;color-interpolation:sRGB;color-interpolation-filters:linearRGB;solid-color:#000000;solid-opacity:1;fill:#cbcbcb;fill-opacity:1;fill-rule:evenodd;stroke:none;stroke-width:1px;stroke-linecap:round;stroke-linejoin:round;stroke-miterlimit:4;stroke-dasharray:none;stroke-dashoffset:0;stroke-opacity:1;color-rendering:auto;image-rendering:auto;shape-rendering:auto;text-rendering:auto;enable-background:accumulate"/><path d="m 19.001953,1037.8613 a 0.50005,0.50005 0 1 0 0,1 l 0.0059,0 a 0.50005,0.50005 0 1 0 0,-1 l -0.0059,0 z m 2,0 a 0.50005,0.50005 0 1 0 0,1 l 5.005859,0 a 0.50005,0.50005 0 1 0 0,-1 l -5.005859,0 z" id="path5073" style="color:#000000;font-style:normal;font-variant:normal;font-weight:normal;font-stretch:normal;font-size:medium;line-height:normal;font-family:sans-serif;text-indent:0;text-align:start;text-decoration:none;text-decoration-line:none;text-decoration-style:solid;text-decoration-color:#000000;letter-spacing:normal;word-spacing:normal;text-transform:none;direction:ltr;block-progression:tb;writing-mode:lr-tb;baseline-shift:baseline;text-anchor:start;white-space:normal;clip-rule:nonzero;display:inline;overflow:visible;visibility:visible;opacity:1;isolation:auto;mix-blend-mode:normal;color-interpolation:sRGB;color-interpolation-filters:linearRGB;solid-color:#000000;solid-opacity:1;fill:#cbcbcb;fill-opacity:1;fill-rule:evenodd;stroke:none;stroke-width:1px;stroke-linecap:round;stroke-linejoin:round;stroke-miterlimit:4;stroke-dasharray:none;stroke-dashoffset:0;stroke-opacity:1;color-rendering:auto;image-rendering:auto;shape-rendering:auto;text-rendering:auto;enable-background:accumulate"/><path d="m 19.001953,1039.8613 a 0.50005,0.50005 0 1 0 0,1 l 0.0059,0 a 0.50005,0.50005 0 1 0 0,-1 l -0.0059,0 z m 2,0 a 0.50005,0.50005 0 1 0 0,1 l 5.005859,0 a 0.50005,0.50005 0 1 0 0,-1 l -5.005859,0 z" id="path5075" style="color:#000000;font-style:normal;font-variant:normal;font-weight:normal;font-stretch:normal;font-size:medium;line-height:normal;font-family:sans-serif;text-indent:0;text-align:start;text-decoration:none;text-decoration-line:none;text-decoration-style:solid;text-decoration-color:#000000;letter-spacing:normal;word-spacing:normal;text-transform:none;direction:ltr;block-progression:tb;writing-mode:lr-tb;baseline-shift:baseline;text-anchor:start;white-space:normal;clip-rule:nonzero;display:inline;overflow:visible;visibility:visible;opacity:1;isolation:auto;mix-blend-mode:normal;color-interpolation:sRGB;color-interpolation-filters:linearRGB;solid-color:#000000;solid-opacity:1;fill:#cbcbcb;fill-opacity:1;fill-rule:evenodd;stroke:none;stroke-width:1px;stroke-linecap:round;stroke-linejoin:round;stroke-miterlimit:4;stroke-dasharray:none;stroke-dashoffset:0;stroke-opacity:1;color-rendering:auto;image-rendering:auto;shape-rendering:auto;text-rendering:auto;enable-background:accumulate"/></g></g></svg>