<svg height="32" id="svg4065" version="1.1" viewbox="0 0 32 32.000001" width="32" xmlns="http://www.w3.org/2000/svg">
  <g transform="translate(0,-1020.3621)">
    <g id="g7966" transform="translate(-766.49658,-562.0323)">
      <g id="g8392">
        <path d="m 770.4966,1587.3944 24.99996,0 c 10e-6,0 2e-5,0 2e-5,0 l 0,21.9999 c 0,10e-5 -10e-6,10e-5 -2e-5,10e-5 l -24.99996,0 c -10e-6,0 -2e-5,0 -2e-5,-10e-5 l 0,-21.9999 c 0,0 10e-6,0 2e-5,0 z" id="rect5360" style="fill:#1a1a1a;fill-opacity:1;stroke:none;stroke-width:1;stroke-linecap:round;stroke-linejoin:round">
        </path>
        <path d="m 770.4966,1587.3944 24.99996,0 c 10e-6,0 2e-5,0 2e-5,0 l 0,6 c 0,0 -10e-6,0 -2e-5,0 l -24.99996,0 c -10e-6,0 -2e-5,0 -2e-5,0 l 0,-6 c 0,0 10e-6,0 2e-5,0 z" id="rect5362" style="fill:#e6e7e8;fill-opacity:1;stroke:none;stroke-width:0.99999994;stroke-linecap:round;stroke-linejoin:round">
        </path>
        <path d="m 774.49658,1590.3944 a 1,1 0 0 1 -1,1 1,1 0 0 1 -1,-1 1,1 0 0 1 1,-1 1,1 0 0 1 1,1 z" id="circle5364" style="fill:#1a1a1a;stroke:none;stroke-width:1;stroke-linecap:round;stroke-linejoin:round">
        </path>
        <path d="m 775.66845,1587.3945 3,3 -3,3 2.82812,0 1.58595,-1.5859 1.41405,-1.4141 -1.41405,-1.4141 -1.58595,-1.5859 -2.82812,0 z m 6,0 3,3 -3,3 2.82812,0 1.58595,-1.5859 1.41405,-1.4141 -1.41405,-1.4141 -1.58595,-1.5859 -2.82812,0 z m 6,0 3,3 -3,3 2.82812,0 1.58595,-1.5859 1.41405,-1.4141 -1.41405,-1.4141 -1.58595,-1.5859 -2.82812,0 z" id="path5366" style="fill:#1a1a1a;fill-opacity:1;stroke:none;stroke-width:1;stroke-linecap:round;stroke-linejoin:round">
        </path>
      </g>
    </g>
  </g>
</svg>