<svg height="32" id="svg4066" version="1.1" viewbox="0 0 32 32.000001" width="32" xmlns="http://www.w3.org/2000/svg">
  <g transform="translate(0,-1020.3621)">
      <path d="m 15.48437,1023.3587 c -2.59049,2.6168 -5.88553,4.4244 -9.48437,5.2031 l 0,9.5328 c 0,5.1329 3.79349,7.058 9.48242,10.2675 l 0.0156,0 c 5.68893,-3.2095 9.48242,-5.1347 9.48242,-10.2675 l 0,-9.5368 c -3.60258,-0.7755 -6.90191,-2.5818 -9.49609,-5.1992 z" id="path5230" style="fill:#518ff5;fill-opacity:1;stroke:none;stroke-width:1;stroke-linecap:round;stroke-linejoin:round">
      </path>
      <path d="m 20.990225,1035.8621 a 5.5,5.5 0 0 1 -5.5,5.5 5.5,5.5 0 0 1 -5.5000002,-5.5 5.5,5.5 0 0 1 5.5000002,-5.5 5.5,5.5 0 0 1 5.5,5.5 z" id="circle5232" style="fill:#5f7987;fill-opacity:1;stroke:none;stroke-width:1;stroke-linecap:round;stroke-linejoin:round">
      </path>
      <path d="m 11.99022,1039.8621 c 2e-5,-1.9243 1.55347,-3.4876 3.47772,-3.4999 1.92428,-0.012 3.49753,1.5312 3.52202,3.4554 l -3.49987,1.5226 z" id="path5234" style="fill:#f9f9f9;fill-opacity:1;stroke:none;stroke-width:1;stroke-linecap:round;stroke-linejoin:round">
      </path>
      <path d="m 16.990229,1034.8621 a 1.5000038,1.5000038 0 0 1 -1.500004,1.5 1.5000038,1.5000038 0 0 1 -1.500004,-1.5 1.5000038,1.5000038 0 0 1 1.500004,-1.5 1.5000038,1.5000038 0 0 1 1.500004,1.5 z" id="circle5236" style="fill:#f9f9f9;fill-opacity:1;stroke:none;stroke-width:1;stroke-linecap:round;stroke-linejoin:round">
      </path>
      <path d="m 15.49114,1036.3614 a 3.5,3.5 0 0 0 -3.5,3.5 3.5,3.5 0 0 0 0.008,0.2481 5.5,5.5 0 0 0 3.49219,1.2519 5.5,5.5 0 0 0 3.48828,-1.2519 3.5,3.5 0 0 0 0.0117,-0.2481 3.5,3.5 0 0 0 -3.5,-3.5 z" id="path5774" style="opacity:1;fill:#f9f9f9;fill-opacity:1;stroke:none;stroke-width:2;stroke-linecap:butt;stroke-linejoin:miter;stroke-opacity:1">
      </path>
  </g>
</svg>