<?xml version="1.0" ?><svg height="32" id="svg4063" version="1.1" viewBox="0 0 32 32.000001" width="32" xmlns="http://www.w3.org/2000/svg" xmlns:cc="http://creativecommons.org/ns#" xmlns:dc="http://purl.org/dc/elements/1.1/" xmlns:inkscape="http://www.inkscape.org/namespaces/inkscape" xmlns:rdf="http://www.w3.org/1999/02/22-rdf-syntax-ns#" xmlns:sodipodi="http://sodipodi.sourceforge.net/DTD/sodipodi-0.dtd" xmlns:svg="http://www.w3.org/2000/svg"><defs id="defs4065"/><g id="layer1" transform="translate(0,-1020.3621)"><g id="g7966" transform="translate(-766.49658,-562.0323)"><g id="g8345"><path d="m 780.21924,1605.1444 0.27734,-1.25 c 0.18027,-0.8112 0.669,-1.5 1.5,-1.5 0.831,0 1.31973,0.6888 1.5,1.5 l 0.27734,1.25 c -1.77667,0 -1.77667,0 -3.55468,0 z" id="path5340" style="fill:#8b5529;fill-opacity:1;stroke:none;stroke-width:1;stroke-linecap:round;stroke-linejoin:round"/><path d="m 771.49658,1594.2067 0,-2.3123 c 0,-0.831 0.66901,-1.5 1.50002,-1.5 l 17.99996,0 c 0.83101,0 1.50002,0.669 1.50002,1.5 l -0.003,0.5784 0,1.7339" id="path5342" style="fill:#8b5529;fill-opacity:1;stroke:none;stroke-width:0.99999994;stroke-linecap:round;stroke-linejoin:round"/><path d="m 769.49658,1593.3944 0,13 10.44531,0 0.55469,-2.5 c 0.18027,-0.8112 0.669,-1.5 1.5,-1.5 0.831,0 1.31973,0.6888 1.5,1.5 l 0.55469,2.5 10.44531,0 0,-13 -25,0 z" id="path5344" style="fill:#d89f4f;fill-opacity:1;stroke:none;stroke-width:1;stroke-linecap:round;stroke-linejoin:round"/><path d="m 778.49658,1599.8944 a 2.5,2.5 0 0 1 -2.5,2.5 2.5,2.5 0 0 1 -2.5,-2.5 2.5,2.5 0 0 1 2.5,-2.5 2.5,2.5 0 0 1 2.5,2.5 z" id="circle5346" style="fill:#8b5529;fill-opacity:1;stroke:none;stroke-width:1;stroke-linecap:round;stroke-linejoin:round"/><path d="m 790.49658,1599.8944 a 2.5,2.5 0 0 1 -2.5,2.5 2.5,2.5 0 0 1 -2.5,-2.5 2.5,2.5 0 0 1 2.5,-2.5 2.5,2.5 0 0 1 2.5,2.5 z" id="circle5348" style="fill:#8b5529;fill-opacity:1;stroke:none;stroke-width:1;stroke-linecap:round;stroke-linejoin:round"/></g></g></g></svg>