<?xml version="1.0" ?><svg height="32" id="svg4063" version="1.1" viewBox="0 0 32 32.000001" width="32" xmlns="http://www.w3.org/2000/svg" xmlns:cc="http://creativecommons.org/ns#" xmlns:dc="http://purl.org/dc/elements/1.1/" xmlns:inkscape="http://www.inkscape.org/namespaces/inkscape" xmlns:rdf="http://www.w3.org/1999/02/22-rdf-syntax-ns#" xmlns:sodipodi="http://sodipodi.sourceforge.net/DTD/sodipodi-0.dtd" xmlns:svg="http://www.w3.org/2000/svg"><defs id="defs4065"/><g id="layer1" transform="translate(0,-1020.3621)"><g id="g7242"><path d="m 14.16374,1026.3617 c -2.36608,-0.034 -4.75151,0.6261 -6.83078,2.0154 -4.75266,3.1757 -6.60878,9.2954 -4.42135,14.5763 2.1874,5.2808 7.82459,8.2931 13.43069,7.1779 5.60609,-1.1151 9.66203,-6.0568 9.66204,-11.7728 l -0.005,0 0,-1.3332 -11.47205,0 0,3.5551 3.47301,0 2.66635,0 1.61786,0 c -0.82568,3.0944 -3.33996,5.5362 -6.61032,6.1868 -4.02207,0.8 -8.025,-1.3393 -9.59434,-5.1279 -1.56936,-3.7887 -0.25217,-8.1319 3.15761,-10.4102 3.40976,-2.2783 7.92535,-1.8321 10.82509,1.0676 l 2.4268,-2.425 c -2.02089,-2.0209 -4.62359,-3.1878 -7.31337,-3.4527 -0.33622,-0.033 -0.67402,-0.053 -1.01203,-0.057 z" id="path4976" style="color:#000000;font-style:normal;font-variant:normal;font-weight:normal;font-stretch:normal;font-size:medium;line-height:normal;font-family:sans-serif;text-indent:0;text-align:start;text-decoration:none;text-decoration-line:none;text-decoration-style:solid;text-decoration-color:#000000;letter-spacing:normal;word-spacing:normal;text-transform:none;direction:ltr;block-progression:tb;writing-mode:lr-tb;baseline-shift:baseline;text-anchor:start;white-space:normal;clip-rule:nonzero;display:inline;overflow:visible;visibility:visible;opacity:1;isolation:auto;mix-blend-mode:normal;color-interpolation:sRGB;color-interpolation-filters:linearRGB;solid-color:#000000;solid-opacity:1;fill:#ea4335;fill-opacity:1;fill-rule:evenodd;stroke:none;stroke-width:1;stroke-linecap:round;stroke-linejoin:round;stroke-miterlimit:4;stroke-dasharray:none;stroke-dashoffset:0;stroke-opacity:1;color-rendering:auto;image-rendering:auto;shape-rendering:auto;text-rendering:auto;enable-background:accumulate"/><path d="m 25.00435,1023.3594 0,2 -2,0 0,2 2,0 0,2 2,0 0,-2 2,0 0,-2 -2,0 0,-2 -2,0 z" id="path4978" style="opacity:1;fill:#ea4335;fill-opacity:1;stroke:none;stroke-width:1;stroke-linecap:round;stroke-linejoin:round;stroke-miterlimit:4.0999999;stroke-dasharray:none"/></g></g></svg>